<svg width="324" height="323" xmlns="http://www.w3.org/2000/svg" xmlns:xlink="http://www.w3.org/1999/xlink" overflow="hidden"><defs><clipPath id="clip0"><rect x="140" y="277" width="324" height="323"/></clipPath><clipPath id="clip1"><rect x="141" y="278" width="322" height="322"/></clipPath><clipPath id="clip2"><rect x="141" y="278" width="322" height="322"/></clipPath><clipPath id="clip3"><rect x="141" y="278" width="322" height="322"/></clipPath></defs><g clip-path="url(#clip0)" transform="translate(-140 -277)"><g clip-path="url(#clip1)"><g clip-path="url(#clip2)"><g clip-path="url(#clip3)"><path d="M450.983 375.308 431.648 366.573C427.83 353.722 416.049 344.884 402.643 344.815L389.138 344.815 386.132 344.895C380.719 345.053 375.596 347.375 371.908 351.341L350.811 374.143C346.476 378.926 340.334 381.675 333.879 381.721L233.48 381.721C221.921 381.733 211.264 387.969 205.59 398.04 187.625 399.401 163.945 386.309 157.327 364.244 156.794 362.469 154.924 361.462 153.15 361.994 151.375 362.527 150.368 364.397 150.9 366.172 158.152 390.345 182.365 404.771 202.719 404.882 201.884 407.748 201.457 410.718 201.45 413.704L201.383 445.296 194.786 471.777C194.719 472.042 194.685 472.314 194.685 472.587L194.685 499.375C194.686 499.649 194.72 499.923 194.786 500.189L199.59 519.398C201.075 525.375 206.445 529.569 212.604 529.562L228.213 529.562C230.065 529.562 231.566 528.061 231.568 526.21L231.574 517.494C231.577 511.715 227.258 506.847 221.52 506.161L221.52 480.64 246.399 455.758 269.297 455.543C277.369 461.857 290.717 465.597 305.366 465.597L328.851 465.597 328.851 499.375C328.852 499.649 328.886 499.923 328.952 500.189L333.756 519.398C335.241 525.375 340.611 529.569 346.77 529.562L362.379 529.562C364.231 529.562 365.732 528.061 365.734 526.21L365.74 517.494C365.743 511.715 361.424 506.847 355.686 506.161L355.686 465.407C360.408 464.59 364.949 462.948 369.102 460.557L369.102 509.438C369.102 511.29 370.604 512.792 372.457 512.792L374.461 512.792C377.055 512.792 379.157 514.894 379.157 517.487 379.157 517.488 379.157 517.489 379.157 517.49L379.155 522.854 372.457 522.854C370.604 522.854 369.103 524.356 369.103 526.208 369.103 528.061 370.604 529.562 372.457 529.562L382.506 529.562C384.358 529.562 385.859 528.062 385.861 526.211L385.867 517.495C385.87 511.716 381.551 506.848 375.813 506.162L375.813 454.996C380.944 448.237 385.358 440.963 388.985 433.292L401.558 401.849 429.476 401.849C442.438 401.832 452.941 391.327 452.955 378.365 452.956 377.047 452.184 375.851 450.983 375.308ZM429.476 395.14 399.287 395.14C397.915 395.14 396.681 395.975 396.172 397.249L382.822 430.65C379.312 438.033 375.032 445.025 370.056 451.511 365.031 455.883 358.747 458.548 352.111 459.122 350.35 459.242 348.982 460.704 348.98 462.469L348.98 509.438C348.98 511.29 350.481 512.792 352.334 512.792L354.338 512.792C356.932 512.792 359.034 514.894 359.034 517.487 359.034 517.488 359.034 517.489 359.034 517.49L359.03 522.854 346.772 522.854C343.692 522.858 341.007 520.761 340.265 517.772L335.561 498.962 335.561 462.242C335.561 460.39 334.059 458.888 332.207 458.888L305.367 458.888C291.651 458.888 279.424 455.428 272.664 449.631 272.047 449.104 271.261 448.817 270.45 448.823L244.967 449.062C244.089 449.071 243.248 449.423 242.627 450.045L215.794 476.879C215.165 477.508 214.811 478.36 214.811 479.25L214.811 509.438C214.811 511.29 216.313 512.792 218.165 512.792L220.17 512.792C222.763 512.792 224.866 514.894 224.866 517.487 224.866 517.488 224.866 517.489 224.866 517.49L224.864 522.854 212.605 522.854C209.526 522.858 206.84 520.761 206.098 517.772L201.394 498.962 201.394 473.001 207.991 446.52C208.059 446.255 208.092 445.983 208.092 445.709L208.092 418.671 208.159 413.75C208.175 399.772 219.503 388.445 233.481 388.429L333.879 388.429C342.244 388.417 350.21 384.855 355.796 378.629L376.831 355.897C377.743 354.904 378.829 354.088 380.035 353.489L378.949 369.538C378.403 377.666 384.539 384.701 392.665 385.266L393.336 385.312C393.68 385.336 394.023 385.347 394.365 385.346 402.117 385.334 408.538 379.328 409.067 371.594L409.662 362.893C409.817 361.047 408.447 359.425 406.601 359.269 404.755 359.114 403.132 360.484 402.977 362.33 402.974 362.365 402.972 362.401 402.97 362.436L402.375 371.137C402.073 375.572 398.231 378.923 393.796 378.62 393.796 378.62 393.795 378.62 393.795 378.62L393.124 378.574C388.691 378.265 385.344 374.427 385.641 369.993L386.898 351.597 402.643 351.521C413.561 351.571 423.024 359.092 425.537 369.717 425.77 370.74 426.469 371.594 427.426 372.026L446.117 380.47C445.047 388.848 437.923 395.129 429.476 395.14Z" stroke="#4585D1" stroke-width="3.35417" stroke-linecap="butt" stroke-linejoin="miter" stroke-miterlimit="4" stroke-opacity="1" fill="white" fill-rule="nonzero" fill-opacity="1"/><path d="M241.646 506.162 241.646 472.542C241.646 470.689 240.144 469.188 238.292 469.188 236.439 469.188 234.938 470.689 234.938 472.542L234.938 509.438C234.938 511.29 236.439 512.792 238.292 512.792L240.296 512.792C242.89 512.792 244.992 514.894 244.992 517.487 244.992 517.488 244.992 517.489 244.992 517.49L244.989 522.854 238.29 522.854C236.438 522.854 234.936 524.356 234.936 526.208 234.936 528.061 236.438 529.562 238.29 529.562L248.34 529.562C250.191 529.562 251.693 528.062 251.694 526.211L251.7 517.495C251.703 511.716 247.384 506.848 241.646 506.162Z" stroke="#4585D1" stroke-width="3.35417" stroke-linecap="butt" stroke-linejoin="miter" stroke-miterlimit="4" stroke-opacity="1" fill="white" fill-rule="nonzero" fill-opacity="1"/><path d="M422.763 373.594C422.763 376.372 420.51 378.625 417.732 378.625 414.953 378.625 412.7 376.372 412.7 373.594 412.7 370.815 414.953 368.562 417.732 368.562 420.51 368.562 422.763 370.815 422.763 373.594Z" stroke="#4585D1" stroke-width="3.35417" stroke-linecap="butt" stroke-linejoin="miter" stroke-miterlimit="4" stroke-opacity="1" fill="white" 
fill-rule="nonzero" fill-opacity="1"/></g></g></g></g></svg>