<svg xmlns="http://www.w3.org/2000/svg" xmlns:xlink="http://www.w3.org/1999/xlink" width="500" zoomAndPan="magnify" viewBox="0 0 375 374.999991" height="500" preserveAspectRatio="xMidYMid meet" version="1.0"><defs><clipPath id="id1"><path d="M 57 81.109375 L 266 81.109375 L 266 349.527344 L 57 349.527344 Z M 57 81.109375 " clip-rule="nonzero"/></clipPath><clipPath id="id2"><path d="M 151 162 L 332.847656 162 L 332.847656 318 L 151 318 Z M 151 162 " clip-rule="nonzero"/></clipPath></defs><g clip-path="url(#id1)"><path fill="white" d="M 239.109375 111.105469 C 236.972656 111.105469 235.230469 109.367188 235.230469 107.222656 L 235.230469 91.769531 L 253.699219 111.105469 Z M 95.011719 308.484375 L 231.597656 308.484375 L 231.597656 339.601562 C 231.597656 341.738281 229.855469 343.480469 227.71875 343.480469 L 67.078125 343.480469 C 64.933594 343.480469 63.191406 341.738281 63.191406 339.601562 L 63.191406 132.195312 C 63.191406 130.050781 64.933594 128.308594 67.078125 128.308594 L 85.007812 128.308594 L 85.007812 298.480469 C 85.007812 303.996094 89.496094 308.484375 95.011719 308.484375 Z M 262.597656 247.578125 C 264.289062 247.578125 265.660156 246.207031 265.660156 244.519531 L 265.660156 121.816406 C 265.660156 117.230469 263.148438 111.054688 259.941406 107.769531 L 239.640625 86.964844 C 236.417969 83.660156 230.273438 81.074219 225.65625 81.074219 L 95.011719 81.074219 C 89.496094 81.074219 85.007812 85.558594 85.007812 91.074219 L 85.007812 122.1875 L 67.078125 122.1875 C 61.558594 122.1875 57.066406 126.679688 57.066406 132.195312 L 57.066406 339.601562 C 57.066406 345.117188 61.558594 349.601562 67.078125 349.601562 L 227.71875 349.601562 C 233.234375 349.601562 237.722656 345.117188 237.722656 339.601562 L 237.722656 308.484375 L 255.652344 308.484375 C 261.171875 308.484375 265.660156 303.996094 265.660156 298.480469 L 265.660156 273.808594 C 265.660156 272.117188 264.289062 270.746094 262.597656 270.746094 C 260.90625 270.746094 259.535156 272.117188 259.535156 273.808594 L 259.535156 298.480469 C 259.535156 300.625 257.792969 302.363281 255.652344 302.363281 L 95.011719 302.363281 C 92.875 302.363281 91.132812 300.625 91.132812 298.480469 L 91.132812 91.074219 C 91.132812 88.933594 92.875 87.195312 95.011719 87.195312 L 225.65625 87.195312 C 226.816406 87.195312 228.199219 87.480469 229.582031 87.949219 C 229.28125 88.804688 229.105469 89.839844 229.105469 91.074219 L 229.105469 107.222656 C 229.105469 112.738281 233.59375 117.230469 239.109375 117.230469 L 253.917969 117.230469 C 255.84375 117.230469 257.1875 116.789062 258.160156 116.207031 C 258.988281 118.113281 259.535156 120.183594 259.535156 121.816406 L 259.535156 244.519531 C 259.535156 246.207031 260.90625 247.578125 262.597656 247.578125 " fill-opacity="1" fill-rule="nonzero"/></g><path fill="white" d="M 225.925781 231.492188 C 220.113281 239.011719 211.316406 243.332031 201.796875 243.332031 C 195.015625 243.332031 188.589844 241.136719 183.203125 236.984375 C 169.917969 226.722656 167.453125 207.566406 177.722656 194.28125 C 183.53125 186.757812 192.324219 182.445312 201.851562 182.445312 C 208.632812 182.445312 215.058594 184.640625 220.445312 188.792969 C 233.730469 199.050781 236.191406 218.203125 225.925781 231.492188 Z M 224.1875 183.945312 C 217.722656 178.957031 209.996094 176.324219 201.851562 176.324219 C 190.417969 176.324219 179.851562 181.507812 172.875 190.542969 C 160.542969 206.496094 163.5 229.503906 179.464844 241.832031 C 185.929688 246.820312 193.644531 249.453125 201.796875 249.453125 C 213.230469 249.453125 223.792969 244.269531 230.773438 235.234375 C 243.105469 219.277344 240.148438 196.269531 224.1875 183.945312 " fill-opacity="1" fill-rule="nonzero"/><g clip-path="url(#id2)"><path fill="white" d="M 325.457031 304.980469 L 321.972656 309.496094 C 321.230469 310.445312 320.105469 310.996094 318.886719 310.996094 C 318.019531 310.996094 317.199219 310.71875 316.523438 310.191406 L 259.097656 265.871094 C 257.40625 264.566406 257.09375 262.125 258.398438 260.429688 L 261.882812 255.921875 C 262.621094 254.96875 263.746094 254.417969 264.96875 254.417969 C 265.835938 254.417969 266.648438 254.695312 267.328125 255.222656 L 324.757812 299.542969 C 325.570312 300.167969 326.09375 301.082031 326.226562 302.117188 C 326.359375 303.148438 326.082031 304.167969 325.457031 304.980469 Z M 247.964844 260.785156 C 247.121094 260.785156 246.332031 260.515625 245.675781 260.007812 C 244.882812 259.398438 244.375 258.496094 244.25 257.480469 C 244.125 256.449219 244.402344 255.433594 245.035156 254.613281 L 252.875 244.46875 C 253.621094 243.503906 254.75 242.949219 255.972656 242.949219 C 256.8125 242.949219 257.605469 243.21875 258.261719 243.722656 C 259.921875 245.007812 260.207031 247.425781 258.898438 249.121094 L 251.058594 259.261719 C 250.316406 260.230469 249.1875 260.785156 247.964844 260.785156 Z M 174.957031 247.664062 C 155.765625 232.851562 152.210938 205.207031 167.027344 186.03125 C 175.414062 175.175781 188.105469 168.949219 201.851562 168.949219 C 211.644531 168.949219 220.921875 172.113281 228.695312 178.113281 C 237.984375 185.285156 243.929688 195.644531 245.425781 207.285156 C 246.910156 218.839844 243.839844 230.28125 236.777344 239.53125 L 236.480469 239.917969 C 228.089844 250.664062 215.460938 256.824219 201.789062 256.824219 C 192 256.824219 182.722656 253.65625 174.957031 247.664062 Z M 242.917969 241.589844 L 245.371094 243.484375 L 242.1875 247.609375 L 239.738281 245.714844 L 241.308594 243.675781 C 241.359375 243.609375 241.417969 243.550781 241.464844 243.484375 C 241.527344 243.410156 241.578125 243.328125 241.636719 243.25 Z M 332.296875 301.335938 C 331.957031 298.679688 330.609375 296.324219 328.5 294.691406 L 271.074219 250.378906 C 269.511719 249.167969 267.664062 248.503906 265.710938 248.359375 C 266.285156 244.863281 264.984375 241.175781 262.003906 238.875 C 260.265625 237.535156 258.179688 236.828125 255.972656 236.828125 C 253.628906 236.828125 251.421875 237.621094 249.652344 239.054688 L 246.085938 236.304688 C 250.921875 227.230469 252.839844 216.914062 251.5 206.507812 C 249.796875 193.242188 243.023438 181.441406 232.433594 173.265625 C 223.585938 166.4375 213.007812 162.828125 201.851562 162.828125 C 186.195312 162.828125 171.734375 169.917969 162.179688 182.285156 C 145.296875 204.132812 149.347656 235.636719 171.214844 252.511719 C 180.0625 259.339844 190.636719 262.945312 201.789062 262.945312 C 214.40625 262.945312 226.242188 258.335938 235.363281 250.074219 L 238.992188 252.878906 C 238.238281 254.539062 237.941406 256.375 238.171875 258.226562 C 238.5 260.878906 239.832031 263.234375 241.933594 264.855469 C 243.671875 266.191406 245.757812 266.90625 247.964844 266.90625 C 249.390625 266.90625 250.757812 266.59375 252.011719 266.042969 C 252.625 267.839844 253.75 269.480469 255.355469 270.71875 L 312.78125 315.039062 C 314.539062 316.394531 316.652344 317.117188 318.886719 317.117188 C 322.019531 317.117188 324.910156 315.703125 326.820312 313.234375 L 330.304688 308.726562 C 331.933594 306.617188 332.644531 303.988281 332.296875 301.335938 " fill-opacity="1" fill-rule="nonzero"/></g><path fill="white" d="M 222.199219 135.832031 L 113.214844 135.832031 C 111.527344 135.832031 110.152344 134.464844 110.152344 132.773438 C 110.152344 131.085938 111.527344 129.710938 113.214844 129.710938 L 222.199219 129.710938 C 223.894531 129.710938 225.261719 131.085938 225.261719 132.773438 C 225.261719 134.464844 223.894531 135.832031 222.199219 135.832031 " fill-opacity="1" fill-rule="nonzero"/><path fill="white" d="M 222.199219 158.785156 L 113.214844 158.785156 C 111.527344 158.785156 110.152344 157.417969 110.152344 155.722656 C 110.152344 154.035156 111.527344 152.664062 113.214844 152.664062 L 222.199219 152.664062 C 223.894531 152.664062 225.261719 154.035156 225.261719 155.722656 C 225.261719 157.417969 223.894531 158.785156 222.199219 158.785156 " fill-opacity="1" fill-rule="nonzero"/><path fill="white" d="M 222.199219 273.546875 L 113.214844 273.546875 C 111.527344 273.546875 110.152344 272.175781 110.152344 270.488281 C 110.152344 268.792969 111.527344 267.425781 113.214844 267.425781 L 222.199219 267.425781 C 223.894531 267.425781 225.261719 268.792969 225.261719 270.488281 C 225.261719 272.175781 223.894531 273.546875 222.199219 273.546875 " fill-opacity="1" fill-rule="nonzero"/><path fill="white" d="M 149.65625 181.738281 L 113.214844 181.738281 C 111.527344 181.738281 110.152344 180.367188 110.152344 178.675781 C 110.152344 176.988281 111.527344 175.613281 113.214844 175.613281 L 149.65625 175.613281 C 151.34375 175.613281 152.71875 176.988281 152.71875 178.675781 C 152.71875 180.367188 151.34375 181.738281 149.65625 181.738281 " fill-opacity="1" fill-rule="nonzero"/><path fill="white" d="M 149.65625 250.597656 L 113.214844 250.597656 C 111.527344 250.597656 110.152344 249.222656 110.152344 247.535156 C 110.152344 245.84375 111.527344 244.476562 113.214844 244.476562 L 149.65625 244.476562 C 151.34375 244.476562 152.71875 245.84375 152.71875 247.535156 C 152.71875 249.222656 151.34375 250.597656 149.65625 250.597656 " fill-opacity="1" fill-rule="nonzero"/><path fill="white" d="M 144.171875 204.695312 L 113.214844 204.695312 C 111.527344 204.695312 110.152344 203.320312 110.152344 201.632812 C 110.152344 199.941406 111.527344 198.570312 113.214844 198.570312 L 144.171875 198.570312 C 145.867188 198.570312 147.234375 199.941406 147.234375 201.632812 C 147.234375 203.320312 145.867188 204.695312 144.171875 204.695312 " fill-opacity="1" fill-rule="nonzero"/><path fill="white" d="M 144.171875 227.640625 L 113.214844 227.640625 C 111.527344 227.640625 110.152344 226.273438 110.152344 224.578125 C 110.152344 222.890625 111.527344 221.519531 113.214844 221.519531 L 144.171875 221.519531 C 145.867188 221.519531 147.234375 222.890625 147.234375 224.578125 C 147.234375 226.273438 145.867188 227.640625 144.171875 227.640625 " fill-opacity="1" fill-rule="nonzero"/></svg>