<svg xmlns="http://www.w3.org/2000/svg" xmlns:xlink="http://www.w3.org/1999/xlink" width="500" zoomAndPan="magnify" viewBox="0 0 375 374.999991" height="500" preserveAspectRatio="xMidYMid meet" version="1.0"><defs><clipPath id="id1"><path d="M 182 109 L 361.316406 109 L 361.316406 306.375 L 182 306.375 Z M 182 109 " clip-rule="nonzero"/></clipPath><clipPath id="id2"><path d="M 13.316406 109 L 188 109 L 188 306.375 L 13.316406 306.375 Z M 13.316406 109 " clip-rule="nonzero"/></clipPath><clipPath id="id3"><path d="M 182 293 L 193 293 L 193 306.375 L 182 306.375 Z M 182 293 " clip-rule="nonzero"/></clipPath></defs><g clip-path="url(#id1)"><path fill="white" d="M 323.25 109.90625 L 324.410156 121.039062 C 327.082031 121.617188 329.230469 122.144531 330.828125 122.5625 C 330.886719 122.578125 330.941406 122.589844 330.996094 122.605469 L 349.765625 282.609375 C 346.363281 281.96875 341.925781 281.1875 336.765625 280.402344 C 324.640625 278.566406 308.527344 276.722656 292.332031 276.71875 C 289.390625 276.71875 286.4375 276.78125 283.511719 276.917969 C 235.703125 279.113281 205.945312 288.085938 192.871094 293.019531 C 192.871094 288.011719 192.871094 280.917969 192.871094 272.460938 C 191.105469 273.289062 190.214844 273.796875 190.171875 273.816406 C 189.351562 274.289062 188.4375 274.523438 187.523438 274.523438 C 187.476562 274.523438 187.433594 274.523438 187.390625 274.523438 C 187.339844 274.523438 187.289062 274.523438 187.234375 274.523438 C 186.339844 274.523438 185.429688 274.296875 184.59375 273.816406 L 184.566406 273.800781 L 184.390625 273.707031 C 184.226562 273.613281 183.953125 273.472656 183.578125 273.277344 C 183.21875 273.097656 182.765625 272.875 182.21875 272.613281 C 182.21875 281.066406 182.21875 288.160156 182.21875 293.140625 C 187.03125 294.972656 189.484375 296.21875 189.652344 296.304688 L 189.652344 296.308594 C 192.269531 297.648438 193.304688 300.863281 191.960938 303.484375 C 191.054688 305.257812 189.285156 306.308594 187.425781 306.382812 C 187.464844 306.382812 187.507812 306.382812 187.546875 306.382812 C 188.378906 306.382812 189.207031 306.191406 189.964844 305.800781 L 190.042969 305.765625 C 191.742188 304.929688 221.886719 290.429688 284.003906 287.570312 C 286.75 287.441406 289.539062 287.382812 292.335938 287.382812 C 292.34375 287.382812 292.355469 287.382812 292.363281 287.382812 C 307.742188 287.382812 323.40625 289.160156 335.171875 290.945312 C 341.058594 291.839844 345.976562 292.730469 349.40625 293.398438 C 351.121094 293.734375 352.46875 294.011719 353.378906 294.203125 C 353.832031 294.300781 354.179688 294.375 354.410156 294.425781 L 354.664062 294.480469 L 354.738281 294.496094 C 355.128906 294.585938 355.523438 294.632812 355.914062 294.632812 C 357.214844 294.632812 358.492188 294.152344 359.480469 293.261719 C 360.761719 292.105469 361.40625 290.394531 361.207031 288.675781 L 341.160156 117.824219 C 340.917969 115.746094 339.488281 114.007812 337.503906 113.367188 C 337.328125 113.308594 332.367188 111.722656 323.25 109.90625 " fill-opacity="1" fill-rule="nonzero"/></g><g clip-path="url(#id2)"><path fill="white" d="M 51.515625 109.90625 C 42.398438 111.722656 37.4375 113.308594 37.261719 113.367188 C 35.277344 114.007812 33.847656 115.746094 33.601562 117.820312 L 13.558594 288.675781 C 13.359375 290.394531 14.003906 292.105469 15.289062 293.261719 C 16.273438 294.152344 17.546875 294.628906 18.851562 294.628906 C 19.242188 294.628906 19.636719 294.585938 20.027344 294.496094 L 20.101562 294.480469 C 20.960938 294.289062 29.074219 292.507812 40.714844 290.777344 C 52.339844 289.050781 67.503906 287.382812 82.402344 287.382812 C 82.414062 287.382812 82.421875 287.382812 82.433594 287.382812 C 85.230469 287.382812 88.015625 287.441406 90.765625 287.570312 C 123.082031 289.054688 146.738281 293.695312 162.242188 297.921875 C 169.996094 300.035156 175.710938 302.042969 179.449219 303.503906 C 181.316406 304.234375 182.691406 304.828125 183.582031 305.230469 C 184.027344 305.429688 184.347656 305.582031 184.550781 305.679688 L 184.800781 305.804688 C 185.578125 306.199219 186.402344 306.386719 187.21875 306.386719 C 187.289062 306.386719 187.355469 306.386719 187.425781 306.382812 C 186.5 306.363281 185.582031 306.101562 184.765625 305.605469 C 183.1875 304.636719 182.21875 302.90625 182.21875 301.054688 C 182.21875 301.054688 182.21875 298.167969 182.21875 293.144531 C 169.316406 288.234375 139.460938 279.128906 91.253906 276.917969 C 88.324219 276.78125 85.378906 276.71875 82.433594 276.71875 C 66.238281 276.722656 50.125 278.566406 38 280.402344 C 32.835938 281.1875 28.398438 281.96875 25 282.609375 L 43.773438 122.605469 C 45.386719 122.179688 47.589844 121.636719 50.351562 121.039062 L 51.515625 109.90625 " fill-opacity="1" fill-rule="nonzero"/></g><g clip-path="url(#id3)"><path fill="white" d="M 182.214844 293.144531 C 182.214844 298.167969 182.214844 301.054688 182.214844 301.054688 C 182.214844 302.910156 183.1875 304.636719 184.765625 305.605469 C 185.578125 306.101562 186.5 306.363281 187.425781 306.382812 C 189.28125 306.3125 191.054688 305.261719 191.960938 303.488281 C 193.300781 300.867188 192.265625 297.652344 189.652344 296.308594 C 189.484375 296.222656 187.027344 294.976562 182.214844 293.144531 " fill-opacity="1" fill-rule="nonzero"/></g><path fill="white" d="M 301.601562 82.210938 L 302.566406 93.3125 C 305.605469 93.988281 308.078125 94.625 309.945312 95.144531 C 310.332031 95.253906 310.695312 95.359375 311.027344 95.457031 L 327.253906 250.914062 C 324.445312 250.328125 320.945312 249.644531 316.941406 248.964844 C 306.402344 247.167969 292.386719 245.363281 278.265625 245.363281 C 275.695312 245.363281 273.121094 245.421875 270.5625 245.554688 C 230.371094 247.628906 204.820312 255.90625 192.851562 260.832031 C 192.851562 256.027344 192.851562 249.386719 192.851562 241.527344 C 191.425781 242.324219 190.65625 242.832031 190.535156 242.914062 L 190.53125 242.914062 C 189.621094 243.546875 188.5625 243.863281 187.503906 243.863281 C 187.445312 243.863281 187.390625 243.863281 187.335938 243.863281 C 187.308594 243.863281 187.285156 243.863281 187.261719 243.863281 C 186.214844 243.863281 185.160156 243.554688 184.234375 242.914062 L 184.230469 242.910156 L 184.101562 242.824219 C 183.96875 242.738281 183.75 242.601562 183.445312 242.414062 C 183.128906 242.21875 182.710938 241.972656 182.195312 241.679688 C 182.195312 249.535156 182.195312 256.164062 182.195312 260.945312 C 183.195312 261.363281 184.09375 261.75 184.894531 262.109375 C 185.675781 261.660156 186.582031 261.402344 187.542969 261.402344 C 190.488281 261.402344 192.871094 263.789062 192.871094 266.734375 C 192.871094 268.703125 192.871094 270.613281 192.871094 272.460938 C 200.792969 268.746094 226.257812 258.527344 271.113281 256.203125 C 273.46875 256.082031 275.859375 256.023438 278.265625 256.023438 C 278.277344 256.023438 278.292969 256.023438 278.300781 256.023438 C 291.511719 256.023438 305.011719 257.746094 315.15625 259.476562 C 320.234375 260.339844 324.472656 261.207031 327.429688 261.851562 C 328.90625 262.175781 330.066406 262.445312 330.847656 262.628906 C 331.238281 262.722656 331.535156 262.792969 331.730469 262.84375 L 331.945312 262.898438 L 332.007812 262.910156 C 332.445312 263.023438 332.886719 263.078125 333.324219 263.078125 C 334.589844 263.078125 335.824219 262.625 336.804688 261.777344 C 338.125 260.636719 338.800781 258.929688 338.617188 257.191406 L 324.410156 121.039062 C 323.183594 120.773438 321.847656 120.496094 320.402344 120.214844 C 317.515625 119.648438 315.632812 116.847656 316.195312 113.957031 C 316.695312 111.414062 318.921875 109.648438 321.421875 109.648438 C 321.757812 109.648438 322.101562 109.679688 322.449219 109.75 C 322.71875 109.800781 322.984375 109.855469 323.25 109.90625 L 321.265625 90.867188 C 321.050781 88.839844 319.691406 87.101562 317.777344 86.40625 C 317.558594 86.328125 311.894531 84.292969 301.601562 82.210938 " fill-opacity="1" fill-rule="nonzero"/><path fill="white" d="M 187.542969 261.40625 C 186.582031 261.40625 185.675781 261.660156 184.894531 262.109375 C 188.09375 263.539062 189.75 264.484375 189.902344 264.574219 C 192.453125 266.042969 193.328125 269.300781 191.859375 271.855469 C 190.898438 273.519531 189.179688 274.472656 187.390625 274.523438 C 187.4375 274.523438 187.480469 274.523438 187.523438 274.523438 C 188.441406 274.523438 189.355469 274.289062 190.175781 273.816406 C 190.214844 273.796875 191.109375 273.289062 192.871094 272.460938 C 192.871094 270.617188 192.871094 268.707031 192.871094 266.738281 C 192.871094 263.792969 190.488281 261.40625 187.542969 261.40625 M 321.421875 109.648438 C 318.921875 109.648438 316.695312 111.414062 316.195312 113.957031 C 315.632812 116.847656 317.515625 119.648438 320.402344 120.214844 C 321.847656 120.496094 323.183594 120.773438 324.410156 121.039062 L 323.25 109.90625 C 322.988281 109.851562 322.71875 109.800781 322.449219 109.746094 C 322.101562 109.679688 321.757812 109.648438 321.421875 109.648438 " fill-opacity="1" fill-rule="nonzero"/><path fill="white" d="M 73.160156 82.210938 C 62.867188 84.292969 57.207031 86.328125 56.988281 86.40625 C 55.070312 87.101562 53.710938 88.835938 53.5 90.867188 L 51.515625 109.90625 C 52.222656 109.765625 52.960938 109.621094 53.71875 109.476562 C 54.054688 109.414062 54.390625 109.382812 54.714844 109.382812 C 57.226562 109.382812 59.460938 111.167969 59.945312 113.726562 C 60.492188 116.617188 58.589844 119.410156 55.699219 119.957031 C 53.734375 120.328125 51.949219 120.691406 50.351562 121.039062 L 36.144531 257.195312 C 35.960938 258.933594 36.636719 260.640625 37.957031 261.78125 C 38.9375 262.628906 40.171875 263.082031 41.4375 263.082031 C 41.875 263.082031 42.320312 263.027344 42.753906 262.914062 L 42.816406 262.902344 C 43.539062 262.71875 50.535156 260.992188 60.570312 259.316406 C 70.59375 257.640625 83.667969 256.027344 96.46875 256.027344 C 96.476562 256.027344 96.488281 256.027344 96.5 256.027344 C 96.503906 256.027344 96.511719 256.027344 96.515625 256.027344 C 98.914062 256.027344 101.300781 256.082031 103.652344 256.207031 C 131.535156 257.648438 151.921875 262.148438 165.261719 266.234375 C 171.933594 268.277344 176.84375 270.21875 180.046875 271.625 C 180.886719 271.996094 181.609375 272.328125 182.214844 272.617188 C 182.214844 271.652344 182.214844 270.671875 182.214844 269.671875 C 182.203125 269.515625 182.195312 269.355469 182.195312 269.195312 C 182.195312 269.195312 182.195312 266.175781 182.195312 260.949219 C 170.347656 256.039062 144.707031 247.648438 104.203125 245.558594 C 101.640625 245.425781 99.066406 245.363281 96.5 245.363281 C 82.375 245.367188 68.359375 247.171875 57.820312 248.964844 C 53.816406 249.648438 50.316406 250.328125 47.511719 250.914062 L 63.734375 95.457031 C 65.683594 94.890625 68.527344 94.128906 72.195312 93.316406 L 73.160156 82.210938 " fill-opacity="1" fill-rule="nonzero"/><path fill="white" d="M 182.214844 269.671875 C 182.214844 270.671875 182.214844 271.652344 182.214844 272.617188 C 182.765625 272.875 183.21875 273.097656 183.578125 273.28125 C 183.953125 273.472656 184.222656 273.617188 184.390625 273.707031 L 184.566406 273.804688 L 184.59375 273.820312 C 185.425781 274.300781 186.339844 274.527344 187.234375 274.527344 C 187.285156 274.527344 187.339844 274.527344 187.386719 274.527344 C 186.515625 274.503906 185.640625 274.265625 184.855469 273.8125 C 183.347656 272.9375 182.371094 271.390625 182.214844 269.671875 " fill-opacity="1" fill-rule="nonzero"/><path fill="white" d="M 54.714844 109.382812 C 54.390625 109.382812 54.054688 109.414062 53.71875 109.476562 C 52.960938 109.621094 52.222656 109.765625 51.515625 109.90625 L 50.351562 121.039062 C 51.949219 120.691406 53.734375 120.328125 55.699219 119.957031 C 58.589844 119.410156 60.492188 116.621094 59.945312 113.726562 C 59.460938 111.167969 57.226562 109.382812 54.714844 109.382812 " fill-opacity="1" fill-rule="nonzero"/><path fill="white" d="M 182.195312 260.949219 C 182.195312 266.171875 182.195312 269.191406 182.195312 269.191406 C 182.195312 269.351562 182.203125 269.511719 182.214844 269.671875 C 182.214844 268.707031 182.214844 267.730469 182.214844 266.738281 C 182.214844 264.757812 183.296875 263.03125 184.894531 262.109375 C 184.089844 261.753906 183.195312 261.363281 182.195312 260.949219 " fill-opacity="1" fill-rule="nonzero"/><path fill="white" d="M 184.894531 262.109375 C 183.296875 263.03125 182.214844 264.757812 182.214844 266.738281 C 182.214844 267.730469 182.214844 268.710938 182.214844 269.671875 C 182.371094 271.390625 183.347656 272.9375 184.855469 273.808594 C 185.640625 274.265625 186.515625 274.503906 187.386719 274.523438 C 189.179688 274.472656 190.898438 273.519531 191.855469 271.855469 C 193.324219 269.304688 192.449219 266.042969 189.898438 264.574219 C 189.75 264.484375 188.09375 263.539062 184.894531 262.109375 " fill-opacity="1" fill-rule="nonzero"/><path fill="white" d="M 192.828125 74.320312 C 194.523438 72.667969 198.027344 69.636719 203.519531 66.621094 C 211.511719 62.246094 223.6875 57.851562 240.992188 57.699219 C 241.503906 57.695312 242.015625 57.695312 242.523438 57.695312 C 258.34375 57.695312 270.898438 59.734375 279.445312 61.75 C 283.71875 62.757812 286.988281 63.761719 289.15625 64.5 C 289.230469 64.523438 289.304688 64.550781 289.378906 64.574219 L 302.875 219.980469 C 300.769531 219.46875 298.296875 218.902344 295.53125 218.335938 C 286.691406 216.53125 274.941406 214.707031 263.015625 214.703125 C 260.847656 214.703125 258.671875 214.765625 256.503906 214.898438 C 224.484375 216.882812 203.492188 224.527344 192.828125 229.566406 L 192.828125 74.320312 M 242.523438 47.03125 C 241.988281 47.03125 241.445312 47.03125 240.902344 47.035156 C 221.203125 47.191406 206.878906 52.4375 197.511719 57.765625 C 193.042969 60.300781 189.695312 62.84375 187.382812 64.855469 C 189.929688 67.066406 191.226562 68.632812 191.398438 68.835938 C 193.253906 71.121094 192.910156 74.476562 190.632812 76.335938 C 189.644531 77.144531 188.453125 77.535156 187.269531 77.535156 C 185.734375 77.535156 184.207031 76.871094 183.152344 75.59375 L 183.152344 75.589844 L 183.074219 75.503906 C 182.996094 75.414062 182.855469 75.253906 182.648438 75.039062 C 182.515625 74.902344 182.359375 74.738281 182.175781 74.550781 L 182.175781 229.675781 C 182.644531 229.898438 183.097656 230.121094 183.527344 230.332031 C 184.5 229.222656 185.933594 228.523438 187.523438 228.523438 C 190.46875 228.523438 192.851562 230.910156 192.851562 233.855469 C 192.851562 236.519531 192.851562 239.082031 192.851562 241.527344 C 199.492188 237.8125 220.417969 227.832031 257.167969 225.542969 C 259.09375 225.421875 261.050781 225.367188 263.019531 225.367188 C 263.035156 225.367188 263.046875 225.367188 263.0625 225.367188 C 273.882812 225.367188 285.027344 227.066406 293.398438 228.785156 C 297.589844 229.644531 301.09375 230.503906 303.527344 231.144531 C 304.75 231.464844 305.703125 231.730469 306.34375 231.914062 C 306.664062 232.003906 306.90625 232.074219 307.0625 232.121094 L 307.238281 232.175781 L 307.277344 232.1875 L 307.28125 232.1875 C 307.789062 232.34375 308.3125 232.417969 308.832031 232.417969 C 310.039062 232.417969 311.234375 232.007812 312.191406 231.230469 C 313.558594 230.121094 314.300781 228.382812 314.144531 226.625 L 302.570312 93.3125 C 300.921875 92.949219 299.109375 92.574219 297.132812 92.203125 C 294.242188 91.65625 292.339844 88.867188 292.886719 85.972656 C 293.367188 83.414062 295.605469 81.628906 298.117188 81.628906 C 298.441406 81.628906 298.777344 81.65625 299.109375 81.71875 C 299.96875 81.882812 300.800781 82.046875 301.601562 82.207031 L 299.703125 60.296875 C 299.53125 58.347656 298.308594 56.648438 296.515625 55.867188 C 296.019531 55.65625 276 47.03125 242.523438 47.03125 " fill-opacity="1" fill-rule="nonzero"/><path fill="white" d="M 187.523438 228.523438 C 185.929688 228.523438 184.5 229.222656 183.523438 230.332031 C 187.867188 232.480469 190.101562 234.007812 190.296875 234.148438 C 191.789062 235.179688 192.59375 236.84375 192.59375 238.53125 L 192.828125 238.53125 L 192.59375 238.53125 C 192.59375 239.582031 192.289062 240.640625 191.644531 241.566406 C 190.625 243.039062 189 243.839844 187.335938 243.863281 C 187.390625 243.863281 187.445312 243.867188 187.503906 243.867188 C 188.5625 243.867188 189.621094 243.546875 190.53125 242.914062 L 190.535156 242.914062 C 190.65625 242.832031 191.425781 242.324219 192.851562 241.527344 C 192.851562 239.082031 192.851562 236.519531 192.851562 233.855469 C 192.851562 230.910156 190.464844 228.523438 187.523438 228.523438 M 298.113281 81.628906 C 295.601562 81.628906 293.367188 83.414062 292.886719 85.972656 C 292.339844 88.867188 294.242188 91.65625 297.132812 92.203125 C 299.109375 92.574219 300.921875 92.953125 302.566406 93.316406 L 301.601562 82.210938 C 300.796875 82.046875 299.96875 81.886719 299.109375 81.722656 C 298.773438 81.660156 298.441406 81.628906 298.113281 81.628906 " fill-opacity="1" fill-rule="nonzero"/><path fill="white" d="M 132.238281 47.03125 C 98.765625 47.03125 78.742188 55.65625 78.25 55.871094 C 76.453125 56.648438 75.230469 58.351562 75.0625 60.300781 L 73.160156 82.210938 C 73.992188 82.042969 74.847656 81.875 75.738281 81.707031 C 76.070312 81.644531 76.402344 81.617188 76.730469 81.617188 C 79.242188 81.617188 81.476562 83.398438 81.960938 85.960938 C 82.503906 88.855469 80.601562 91.644531 77.710938 92.1875 C 75.707031 92.566406 73.867188 92.945312 72.195312 93.316406 L 60.617188 226.625 C 60.464844 228.382812 61.203125 230.121094 62.574219 231.234375 C 63.53125 232.011719 64.726562 232.417969 65.933594 232.417969 C 66.453125 232.417969 66.976562 232.34375 67.484375 232.1875 L 67.488281 232.1875 C 67.722656 232.113281 73.425781 230.394531 81.765625 228.707031 C 90.085938 227.015625 101.054688 225.371094 111.707031 225.371094 C 111.71875 225.371094 111.734375 225.371094 111.746094 225.371094 C 113.714844 225.371094 115.671875 225.425781 117.597656 225.542969 C 140.640625 226.976562 157.453125 231.441406 168.433594 235.480469 C 173.921875 237.503906 177.953125 239.417969 180.574219 240.800781 C 181.195312 241.128906 181.734375 241.425781 182.195312 241.6875 C 182.195312 240.820312 182.195312 239.933594 182.195312 239.035156 C 182.179688 238.871094 182.171875 238.703125 182.171875 238.535156 L 182.171875 229.679688 C 171.578125 224.640625 150.519531 216.898438 118.257812 214.898438 C 116.089844 214.765625 113.917969 214.703125 111.746094 214.703125 C 99.824219 214.707031 88.074219 216.53125 79.234375 218.335938 C 76.46875 218.90625 73.992188 219.46875 71.886719 219.980469 L 85.386719 64.574219 C 91.738281 62.398438 108.242188 57.691406 132.238281 57.695312 C 132.75 57.695312 133.257812 57.695312 133.769531 57.703125 L 133.773438 57.703125 C 151.628906 57.859375 164.027344 62.53125 171.996094 67.042969 C 175.972656 69.300781 178.839844 71.527344 180.667969 73.148438 C 181.285156 73.691406 181.785156 74.171875 182.171875 74.554688 L 182.171875 72.207031 C 182.171875 70.976562 182.589844 69.792969 183.367188 68.839844 C 183.535156 68.632812 184.835938 67.066406 187.382812 64.855469 C 185.066406 62.847656 181.71875 60.304688 177.253906 57.769531 C 167.886719 52.441406 153.5625 47.195312 133.863281 47.039062 C 133.316406 47.03125 132.777344 47.03125 132.238281 47.03125 " fill-opacity="1" fill-rule="nonzero"/><path fill="white" d="M 182.195312 239.03125 C 182.195312 239.929688 182.195312 240.816406 182.195312 241.683594 C 182.710938 241.976562 183.125 242.222656 183.445312 242.417969 C 183.75 242.605469 183.96875 242.742188 184.097656 242.828125 L 184.230469 242.914062 C 185.15625 243.558594 186.214844 243.863281 187.257812 243.863281 C 187.285156 243.863281 187.308594 243.863281 187.335938 243.863281 C 186.542969 243.839844 185.753906 243.636719 185.027344 243.253906 C 183.414062 242.410156 182.363281 240.820312 182.195312 239.03125 " fill-opacity="1" fill-rule="nonzero"/><path fill="white" d="M 76.730469 81.613281 C 76.402344 81.613281 76.074219 81.644531 75.742188 81.707031 C 74.851562 81.875 73.992188 82.042969 73.160156 82.210938 L 72.195312 93.3125 C 73.867188 92.945312 75.707031 92.5625 77.710938 92.1875 C 80.601562 91.640625 82.503906 88.855469 81.960938 85.960938 C 81.476562 83.398438 79.242188 81.613281 76.730469 81.613281 " fill-opacity="1" fill-rule="nonzero"/><path fill="white" d="M 182.171875 229.675781 L 182.171875 238.53125 C 182.171875 238.699219 182.179688 238.867188 182.195312 239.03125 C 182.195312 237.355469 182.195312 235.625 182.195312 233.855469 C 182.195312 232.503906 182.699219 231.269531 183.527344 230.332031 C 183.09375 230.121094 182.644531 229.898438 182.171875 229.675781 M 187.382812 64.855469 C 184.835938 67.066406 183.539062 68.632812 183.367188 68.835938 C 182.589844 69.792969 182.171875 70.972656 182.171875 72.203125 L 182.171875 74.550781 C 182.359375 74.738281 182.515625 74.898438 182.648438 75.039062 C 182.851562 75.253906 182.996094 75.410156 183.074219 75.503906 L 183.148438 75.589844 L 183.152344 75.59375 C 184.207031 76.871094 185.730469 77.535156 187.269531 77.535156 C 188.453125 77.535156 189.644531 77.144531 190.628906 76.335938 C 192.910156 74.476562 193.253906 71.117188 191.394531 68.835938 C 191.226562 68.632812 189.929688 67.066406 187.382812 64.855469 " fill-opacity="1" fill-rule="nonzero"/><path fill="white" d="M 183.523438 230.332031 C 182.699219 231.269531 182.195312 232.503906 182.195312 233.855469 C 182.195312 235.625 182.195312 237.355469 182.195312 239.03125 C 182.363281 240.820312 183.414062 242.410156 185.027344 243.253906 C 185.757812 243.636719 186.542969 243.839844 187.335938 243.863281 C 188.996094 243.839844 190.625 243.039062 191.644531 241.566406 C 192.285156 240.640625 192.59375 239.582031 192.589844 238.53125 L 187.5 238.53125 L 192.589844 238.53125 C 192.589844 236.84375 191.789062 235.179688 190.296875 234.148438 C 190.101562 234.007812 187.867188 232.480469 183.523438 230.332031 " fill-opacity="1" fill-rule="nonzero"/><path fill="white" d="M 130.394531 74.253906 C 119.800781 74.257812 110.5625 76.34375 103.921875 78.421875 C 97.28125 80.507812 93.230469 82.59375 93.019531 82.703125 C 90.40625 84.054688 89.382812 87.273438 90.738281 89.886719 C 91.683594 91.71875 93.542969 92.769531 95.472656 92.769531 C 96.296875 92.769531 97.132812 92.578125 97.917969 92.171875 C 98.113281 92.070312 101.675781 90.28125 107.386719 88.511719 C 113.238281 86.695312 121.339844 84.917969 130.371094 84.917969 C 130.378906 84.917969 130.386719 84.917969 130.394531 84.917969 C 135.625 84.917969 141.160156 85.507812 146.792969 87.003906 C 152.425781 88.503906 158.15625 90.910156 163.828125 94.578125 C 164.722656 95.160156 165.722656 95.433594 166.714844 95.433594 C 168.464844 95.433594 170.175781 94.578125 171.191406 93 C 172.789062 90.527344 172.085938 87.226562 169.613281 85.625 C 162.96875 81.320312 156.164062 78.460938 149.53125 76.699219 C 142.890625 74.933594 136.421875 74.253906 130.394531 74.253906 " fill-opacity="1" fill-rule="nonzero"/><path fill="white" d="M 130.394531 104.246094 C 119.800781 104.25 110.5625 106.335938 103.921875 108.417969 C 97.28125 110.5 93.230469 112.589844 93.019531 112.695312 C 90.40625 114.050781 89.382812 117.269531 90.738281 119.882812 C 91.683594 121.714844 93.542969 122.765625 95.472656 122.765625 C 96.292969 122.765625 97.128906 122.574219 97.910156 122.171875 C 97.992188 122.128906 101.578125 120.304688 107.386719 118.507812 C 113.238281 116.691406 121.339844 114.910156 130.371094 114.910156 C 130.378906 114.910156 130.386719 114.910156 130.394531 114.910156 C 135.625 114.910156 141.160156 115.503906 146.792969 117 C 152.425781 118.5 158.15625 120.902344 163.828125 124.574219 C 164.722656 125.15625 165.722656 125.429688 166.714844 125.429688 C 168.464844 125.429688 170.175781 124.574219 171.191406 122.992188 C 172.789062 120.523438 172.085938 117.21875 169.613281 115.621094 C 162.96875 111.316406 156.164062 108.457031 149.53125 106.695312 C 142.890625 104.925781 136.421875 104.246094 130.394531 104.246094 " fill-opacity="1" fill-rule="nonzero"/><path fill="white" d="M 128.703125 134.242188 C 117.734375 134.242188 108.15625 136.320312 101.273438 138.394531 C 94.390625 140.46875 90.1875 142.546875 89.980469 142.652344 C 87.347656 143.964844 86.273438 147.164062 87.585938 149.800781 C 88.515625 151.671875 90.402344 152.757812 92.359375 152.757812 C 93.15625 152.757812 93.964844 152.578125 94.726562 152.199219 C 94.921875 152.101562 98.648438 150.296875 104.636719 148.519531 C 110.753906 146.695312 119.226562 144.90625 128.679688 144.90625 C 128.6875 144.90625 128.695312 144.90625 128.703125 144.90625 C 134.175781 144.90625 139.972656 145.5 145.871094 147.007812 C 151.769531 148.515625 157.769531 150.933594 163.691406 154.621094 C 164.566406 155.164062 165.539062 155.425781 166.496094 155.425781 C 168.277344 155.425781 170.015625 154.53125 171.027344 152.90625 C 172.582031 150.40625 171.8125 147.117188 169.316406 145.5625 C 162.421875 141.273438 155.375 138.429688 148.507812 136.675781 C 141.636719 134.917969 134.941406 134.242188 128.703125 134.242188 " fill-opacity="1" fill-rule="nonzero"/><path fill="white" d="M 127.335938 171.566406 C 115.914062 171.570312 105.933594 173.636719 98.757812 175.699219 C 91.582031 177.769531 87.199219 179.839844 86.996094 179.9375 C 84.339844 181.203125 83.210938 184.382812 84.472656 187.042969 C 85.386719 188.960938 87.296875 190.085938 89.289062 190.085938 C 90.054688 190.085938 90.832031 189.917969 91.570312 189.570312 C 91.765625 189.476562 95.691406 187.660156 102.007812 185.863281 C 108.441406 184.03125 117.355469 182.234375 127.316406 182.234375 C 127.324219 182.234375 127.332031 182.234375 127.339844 182.234375 C 133.101562 182.234375 139.214844 182.832031 145.429688 184.347656 C 151.644531 185.867188 157.964844 188.300781 164.191406 192.003906 C 165.046875 192.507812 165.980469 192.753906 166.90625 192.753906 C 168.726562 192.753906 170.496094 191.820312 171.488281 190.140625 C 172.992188 187.609375 172.160156 184.339844 169.632812 182.835938 C 162.441406 178.558594 155.105469 175.734375 147.957031 173.988281 C 140.800781 172.242188 133.835938 171.566406 127.335938 171.566406 " fill-opacity="1" fill-rule="nonzero"/><path fill="white" d="M 244.328125 74.253906 C 238.300781 74.253906 231.832031 74.933594 225.195312 76.699219 C 218.558594 78.464844 211.757812 81.320312 205.113281 85.625 C 202.640625 87.226562 201.933594 90.527344 203.53125 93 C 204.550781 94.578125 206.261719 95.4375 208.007812 95.4375 C 209 95.4375 210.003906 95.160156 210.898438 94.582031 C 216.570312 90.910156 222.300781 88.507812 227.933594 87.007812 C 233.566406 85.507812 239.101562 84.917969 244.328125 84.917969 C 244.335938 84.917969 244.34375 84.917969 244.355469 84.917969 C 253.527344 84.917969 261.742188 86.753906 267.617188 88.601562 C 270.554688 89.523438 272.90625 90.441406 274.496094 91.117188 C 275.289062 91.457031 275.894531 91.734375 276.285156 91.921875 C 276.480469 92.011719 276.625 92.082031 276.714844 92.125 L 276.800781 92.171875 L 276.804688 92.171875 C 277.589844 92.578125 278.425781 92.773438 279.25 92.773438 C 281.179688 92.773438 283.039062 91.722656 283.984375 89.890625 C 285.339844 87.277344 284.320312 84.058594 281.703125 82.703125 C 281.496094 82.59375 277.441406 80.507812 270.800781 78.425781 C 264.160156 76.34375 254.921875 74.257812 244.328125 74.253906 " fill-opacity="1" fill-rule="nonzero"/><path fill="white" d="M 244.328125 104.246094 C 238.300781 104.246094 231.832031 104.929688 225.195312 106.695312 C 218.558594 108.460938 211.757812 111.316406 205.113281 115.621094 C 202.640625 117.21875 201.933594 120.523438 203.53125 122.992188 C 204.550781 124.570312 206.261719 125.429688 208.007812 125.429688 C 209 125.429688 210.003906 125.152344 210.898438 124.574219 C 216.570312 120.902344 222.300781 118.5 227.933594 117 C 233.566406 115.5 239.101562 114.910156 244.328125 114.910156 C 244.335938 114.910156 244.34375 114.910156 244.351562 114.910156 C 253.527344 114.910156 261.746094 116.75 267.617188 118.59375 C 270.558594 119.515625 272.90625 120.433594 274.496094 121.113281 C 275.292969 121.449219 275.894531 121.726562 276.289062 121.914062 C 276.484375 122.007812 276.625 122.078125 276.714844 122.121094 L 276.816406 122.171875 C 277.597656 122.574219 278.429688 122.765625 279.253906 122.765625 C 281.179688 122.765625 283.039062 121.714844 283.988281 119.882812 C 285.339844 117.269531 284.320312 114.050781 281.707031 112.695312 C 281.496094 112.585938 277.441406 110.5 270.800781 108.417969 C 264.160156 106.335938 254.921875 104.25 244.328125 104.246094 " fill-opacity="1" fill-rule="nonzero"/><path fill="white" d="M 246.019531 134.242188 C 239.78125 134.242188 233.085938 134.917969 226.21875 136.675781 C 219.347656 138.429688 212.300781 141.273438 205.410156 145.5625 C 202.910156 147.117188 202.144531 150.40625 203.695312 152.90625 C 204.707031 154.53125 206.445312 155.425781 208.226562 155.425781 C 209.1875 155.425781 210.15625 155.164062 211.035156 154.621094 C 216.957031 150.933594 222.953125 148.515625 228.855469 147.007812 C 234.753906 145.5 240.550781 144.90625 246.019531 144.90625 C 246.027344 144.90625 246.039062 144.90625 246.046875 144.90625 C 255.652344 144.90625 264.238281 146.753906 270.378906 148.605469 C 273.453125 149.53125 275.910156 150.453125 277.570312 151.132812 C 278.402344 151.472656 279.035156 151.753906 279.445312 151.941406 C 279.652344 152.035156 279.804688 152.105469 279.894531 152.148438 L 279.996094 152.199219 C 280.757812 152.578125 281.570312 152.757812 282.367188 152.757812 C 284.324219 152.757812 286.207031 151.671875 287.140625 149.800781 C 288.449219 147.164062 287.375 143.960938 284.742188 142.648438 C 284.535156 142.546875 280.335938 140.46875 273.449219 138.390625 C 266.566406 136.320312 256.992188 134.242188 246.019531 134.242188 " fill-opacity="1" fill-rule="nonzero"/><path fill="white" d="M 247.386719 171.566406 C 240.890625 171.566406 233.925781 172.242188 226.769531 173.988281 C 219.621094 175.734375 212.28125 178.558594 205.09375 182.832031 C 202.566406 184.335938 201.734375 187.609375 203.234375 190.140625 C 204.230469 191.816406 206 192.75 207.820312 192.75 C 208.746094 192.75 209.679688 192.507812 210.535156 192 C 216.761719 188.300781 223.082031 185.867188 229.296875 184.347656 C 235.511719 182.828125 241.625 182.230469 247.386719 182.230469 C 247.394531 182.230469 247.402344 182.230469 247.410156 182.230469 C 257.527344 182.230469 266.566406 184.089844 273.023438 185.949219 C 276.253906 186.878906 278.835938 187.808594 280.585938 188.492188 C 281.464844 188.835938 282.128906 189.113281 282.5625 189.304688 C 282.78125 189.398438 282.941406 189.46875 283.039062 189.515625 L 283.144531 189.5625 L 283.152344 189.566406 C 283.890625 189.917969 284.671875 190.082031 285.433594 190.082031 C 287.425781 190.082031 289.339844 188.960938 290.25 187.039062 C 291.511719 184.378906 290.382812 181.199219 287.726562 179.933594 C 287.523438 179.835938 283.144531 177.765625 275.964844 175.699219 C 268.789062 173.636719 258.808594 171.570312 247.386719 171.566406 " fill-opacity="1" fill-rule="nonzero"/></svg>